<svg xmlns="http://www.w3.org/2000/svg" width="32" height="33" viewBox="0 0 32 33"><defs><clipPath id="c96ca"><path fill="#fff" d="M0 16.143c0-8.837 7.163-16 16-16s16 7.163 16 16c0 8.836-7.163 16-16 16s-16-7.164-16-16z"/></clipPath></defs><g><g><path fill="#fff" d="M0 16.143c0-8.837 7.163-16 16-16s16 7.163 16 16c0 8.836-7.163 16-16 16s-16-7.164-16-16z"/><path fill="none" stroke="#d2563f" stroke-miterlimit="20" stroke-width="4" d="M0 16.143c0-8.837 7.163-16 16-16s16 7.163 16 16c0 8.836-7.163 16-16 16s-16-7.164-16-16z" clip-path="url(&quot;#c96ca&quot;)"/></g><g><path fill="#d2563f" d="M21.316 19.645a1.89 1.89 0 0 0-.775-.166h-7.532l-.277-1.624h9.488l1.957-6.516H11.625L11.2 8.92H7.822v1.163h2.381l1.643 9.598a1.96 1.96 0 0 0-.886 2.603c.462.96 1.643 1.348 2.603.886a1.968 1.968 0 0 0 .923-2.529h4.283a1.937 1.937 0 0 0 .996 2.548 1.937 1.937 0 0 0 2.548-.997c.443-.979-.019-2.123-.997-2.548z"/></g></g></svg>