<svg xmlns="http://www.w3.org/2000/svg" width="52" height="50" viewBox="0 0 52 50"><g><g><g><path fill="#d2563f" d="M26.112.026C12.256.026.898 11.308.898 25.24a25.14 25.14 0 0 0 17.34 23.927l1.968-6.057C12.483 40.535 7.26 33.342 7.26 25.24c0-10.373 8.48-18.853 18.854-18.853 10.373 0 18.853 8.48 18.853 18.853 0 8.026-5.073 15.068-12.417 17.718v6.664C43.603 46.744 51.326 36.75 51.326 25.24 51.326 11.308 40.045.026 26.112.026z"/></g><g><path fill="#d2563f" d="M38.152 22.439v-6.285H15.436v6.285h6.815z"/></g><g><path fill="#d2563f" d="M22.25 26.073v-.075h-6.814v6.208h17.491l.076-6.133z"/></g><g><path fill="#d2563f" d="M21.645 42.655v-6.814h-6.209v12.19a24.197 24.197 0 0 0 6.133 1.97z"/></g></g></g></svg>