<svg xmlns="http://www.w3.org/2000/svg" width="18" height="18" viewBox="0 0 18 18"><g><g><path fill="#fff" d="M16.38 8.998c0-1.309.108-4.12-.362-5.304a3.037 3.037 0 0 0-1.71-1.71c-1.181-.467-3.996-.362-5.305-.362-1.31 0-4.12-.109-5.305.361a3.037 3.037 0 0 0-1.71 1.71c-.467 1.181-.362 3.996-.362 5.305 0 1.31-.109 4.12.361 5.305a3.037 3.037 0 0 0 1.711 1.71c1.18.466 3.996.362 5.305.362 1.309 0 4.12.108 5.304-.361a3.037 3.037 0 0 0 1.71-1.711c.47-1.18.362-3.996.362-5.305zm1.557-3.71c.085 1.486.085 5.935 0 7.42-.072 1.442-.401 2.72-1.453 3.771-1.052 1.057-2.33 1.386-3.771 1.454-1.486.084-5.94.084-7.425 0-1.441-.072-2.714-.401-3.77-1.454C.46 15.427.131 14.15.063 12.71c-.084-1.486-.084-5.94 0-7.425.072-1.442.397-2.719 1.453-3.77C2.574.46 3.851.131 5.288.063c1.486-.085 5.94-.085 7.425 0 1.442.072 2.719.401 3.77 1.453 1.057 1.052 1.386 2.33 1.454 3.77zm-3.056-1.092c0 .598-.481 1.076-1.076 1.076a1.076 1.076 0 1 1 1.076-1.076zm-2.879 4.802c0-1.654-1.345-3-3-3-1.654 0-3 1.346-3 3 0 1.655 1.35 3 3 3 1.651 0 3-1.345 3-3zm1.615 0a4.607 4.607 0 0 1-4.614 4.614 4.607 4.607 0 0 1-4.614-4.614 4.607 4.607 0 0 1 4.614-4.614 4.607 4.607 0 0 1 4.614 4.614z"/></g></g></svg>